<svg id="Layer_1" data-name="Layer 1" xmlns="http://www.w3.org/2000/svg" viewBox="0 0 548.66 190.21"><defs><style>.cls-1{fill:#fff;}</style></defs><path class="cls-1" d="M322.75-143.93a99.18,99.18,0,0,1,3.61-29.87c1-3.48,2.2-6.86,3.46-10.37H53.13c1.39,2.18,1.15,4.28.46,6.46q-3.78,11.93-7.48,23.9c-1.49,4.79-2.93,9.59-4.16,15,4.32-5.25,8.29-10.11,12.29-14.93,6.24-7.53,12.34-15.18,19.51-21.89a17,17,0,0,1,6-4c2.87-1,4.39-.21,5.3,2.66a19.51,19.51,0,0,1-.2,11.88C82.42-157,80-149,77.6-140.94c-.94,3.17-2.25,6.25-2.49,9.6-.08,1.13-.16,2.41,1.15,2.91a2.81,2.81,0,0,0,3.23-.92c2.18-2.54,5.38-4.18,6.62-7.55a2.1,2.1,0,0,1,.33-.42,68.75,68.75,0,0,1,24.73-19.31c4.59-2.16,9.33-3,14.31-1.25s6,3.33,4.42,8.48c-2,6.39-4.67,12.56-5.7,19.22-.64,4.18-1.75,8.39.3,12.54a2.35,2.35,0,0,1-.79,2.89,3.67,3.67,0,0,1-3.9,1,7.05,7.05,0,0,0-4.14-.39c-1.63.37-2.55-.68-3.15-2a18.19,18.19,0,0,1-1-4.84c-.43-2.93.13-5.87-.07-9.2a40.87,40.87,0,0,1-6.37,6.59c-5.67,4.55-12.55,6-19.42,7.29-2.45.48-3.52-.35-4.62-2.66-.44-.93-.75-1.92-1.14-3-4.27,3.33-8.83,5.3-14.23,5-3-.18-3.93-.83-4.79-3.72a17.35,17.35,0,0,1,.27-10.5c3-9.37,6.65-18.5,9.93-27.77.81-2.3,1.64-4.6,2.46-6.89A3.37,3.37,0,0,0,72-164.7c-7.37,9-14.26,18.35-21.43,27.5-3.48,4.43-6.72,9.1-10.61,13.14s-7.58,4.24-11.38.42a3.21,3.21,0,0,1-.94-2.76c.21-1.77.42-3.53.76-5.27,1.94-10,4.71-19.69,7.57-29.4,1.2-4.08,2.44-8.14,3.81-12.68C20.45-154.62,6.14-132.34-8.65-109.89h1.93q167.37,0,334.75,0c1.67,0,1.83-.37,1.26-1.85A98.32,98.32,0,0,1,322.75-143.93Zm-135.38-1.7a25,25,0,0,1,5,8.91,12.17,12.17,0,0,1-2,11.73c-5.45,7.22-17.71,10.71-25.85,7.35-.06,0-.13,0-.17-.06-1.91-2-3.88-1.12-5.95-.25a51,51,0,0,1-4.91,1.56,15.85,15.85,0,0,1-10,0,79.67,79.67,0,0,0-8.58-2.27c-4.77-1-6.75-3.55-7-8.43-.27-4.56,1.24-8.58,3.34-12.52,5.13-9.62,13.54-15.32,23.17-19.58a14.48,14.48,0,0,1,3.25-.89c5.07-.93,8.21,1.61,8.28,6.77,0,2.81-.3,5.56-2.13,7.91a4.94,4.94,0,0,0-.77,1.58c-2.69,8.76-9.12,13.67-17.27,16.81-.48.18-1.23.11-1.36.65s.54.84.93,1.19c4,3.6,8.38,4,13.21,1.94,2-.81,3.74-1.56,4.85-3.64a11.51,11.51,0,0,1,3.64-3.61c2.22-1.57,3.84-1.33,5.53.83a24.93,24.93,0,0,1,1.49,2.42,10.67,10.67,0,0,0,1.72,2.48c.76.7,1.63,1.38,2.69,1s.81-1.61.77-2.51c-.17-4.54-1.2-8.8-4.28-12.34-.43-.49-.77-1.05-1.15-1.58-3.1-4.31-3.18-6.63.23-10.64A42.5,42.5,0,0,1,188-161.41a5.94,5.94,0,0,1,4.31-.58c2.85.78,3.74,2.08,3.3,5-.2,1.34-.37,2.7-.65,4-.58,2.83-2.26,3.75-5.08,3a10.09,10.09,0,0,1-3.41-2.16C185.14-149.77,185.35-147.94,187.37-145.63Zm107.57-4.66c-.41,3.89-.76,7.78-1.27,11.66a15.37,15.37,0,0,1-2.48,6.42A35.91,35.91,0,0,1,269-116.5a12.2,12.2,0,0,1-7.67-.75c-2.8-1.17-5.72-6.2-5.15-9.17.79-4.16.71-8.55,2.82-12.68-1,.37-2,.72-2.94,1.1-2.42.93-3.23.79-4.69-1.32-.91-1.3-1.41-1.1-2.24,0a70.32,70.32,0,0,0-8,14c-1.24,2.87-2.92,5.28-5.95,6.5a6.82,6.82,0,0,0-1.07.63c-4,2.45-5.36,2.2-8.44-1.47a8.62,8.62,0,0,1-2.39-4.47,4,4,0,0,0-2.07,1.42c-3.61,3.56-8,5.22-13,6-7.85,1.24-11.2-3.06-13-8.38a10.42,10.42,0,0,1,.67-8.59,74.21,74.21,0,0,0,3.21-7.9c.44-1.11.35-1.68-1-1.51a3.79,3.79,0,0,1-.89,0c-1.66-.12-2.18-1.08-1.34-2.54a7.84,7.84,0,0,1,3.13-2.84,16,16,0,0,0,6.94-7.82c1.52-3.4,3.33-6.68,5-10,1.21-2.36,2.76-4.3,5.7-4.51,1-.07,1.75-1,2.68-1.33,1.53-.61,3.07-1.58,4.6-.08,1.2,1.19,1.54,4.55.57,6-2.49,3.77-4.28,7.92-6.4,11.89a2.62,2.62,0,0,0-.54,1.56l4.54.43c2.71.27,3.61,2.09,2,4.34-1.08,1.56-2.31,3-3.52,4.47a2.65,2.65,0,0,1-2.24.86c-1.61,0-3.22.09-4.81,0a1.86,1.86,0,0,0-2.14,1.33,31.06,31.06,0,0,0-2.83,8.19c-.71,5,2.08,7.62,7.05,6.37a38.18,38.18,0,0,0,4.35-1.55c3-1.14,4.15-.47,4.56,2.72,3.05-1.36,4.52-4,5.47-6.87a30.3,30.3,0,0,0,.93-12.14c-.09-1-.42-1.31-1.39-1.27-1.56.06-3.33.16-3.83-1.76s.92-2.92,2.22-3.89a10.26,10.26,0,0,1,5.59-2.09,8.31,8.31,0,0,0,3.68-1.14c2.94-1.64,4.83-.61,5.33,2.74a26.63,26.63,0,0,1-.51,8.45c-.28,1.69-.69,3.36-1.05,5-.1.42-.24.86.24,1.09s.9-.2,1.09-.62a32,32,0,0,1,4.41-7.06c.48-.59.28-1.08.1-1.64a15.24,15.24,0,0,1,0-8.23,8.62,8.62,0,0,1,4.75-6.08,31,31,0,0,0,3.27-2.13c2-1.36,3.32-1.05,4.48,1.11.44.84.82,1.71,1.29,2.53a4.28,4.28,0,0,1-.2,4.84,10.94,10.94,0,0,0-1.56,3.18c-.56,2.07-.81,4.07,1.05,5.74,1,.89.95,2.25,1.23,3.7l2.88-3.4a58.81,58.81,0,0,1,10.31-9.76c2-1.48,4.3-2.47,5.84-4.68,1.07-1.52,3.15-2.05,5-2.61a3.37,3.37,0,0,1,3.45.89,44.5,44.5,0,0,1,4.26,4.53A9,9,0,0,1,294.94-150.29Z" transform="translate(28.83 241.54)"/><path class="cls-1" d="M38.77-184.26H36.94q-31.86,0-63.72,0c-1.62,0-2.06.4-2,2q.07,35.14,0,70.29a8.81,8.81,0,0,1,0,.89c-.11,1,.34,1.23,1.24,1.21,2,0,3.92-.1,5.88,0a3.07,3.07,0,0,0,2.94-1.48c9.12-12.35,18.17-24.75,27.49-36.95A464.58,464.58,0,0,1,38.77-184.26Z" transform="translate(28.83 241.54)"/><path class="cls-1" d="M97.42-125.2a11.1,11.1,0,0,0,3.6-1.89,61.11,61.11,0,0,0,11.39-10.64A61.29,61.29,0,0,0,120.18-150c.28-.55.81-1.15.36-1.8s-1.28-.49-2-.42a6.28,6.28,0,0,0-3.22,1.39A80.07,80.07,0,0,0,98-133.37a14.79,14.79,0,0,0-2.54,6.29C95.44-125.32,96-124.84,97.42-125.2Z" transform="translate(28.83 241.54)"/><path class="cls-1" d="M285.65-139.25a26.3,26.3,0,0,1-5.79-8.65c-.59-1.44-1-1-1.65-.1-3.27,4.46-5.1,9.58-6.82,14.75a28.44,28.44,0,0,0-1,5.33c.35,3.49,1,5.39,5.07,3.31,5.54-2.82,8.45-7.73,10.79-13.14C286.57-138.5,286.05-138.84,285.65-139.25Z" transform="translate(28.83 241.54)"/><path class="cls-1" d="M146.85-134.14a39.56,39.56,0,0,0,9.81-10.18,9.07,9.07,0,0,0,1.54-4.85c0-2-.78-2.7-2.76-2.31a7.17,7.17,0,0,0-3.32,1.64,26,26,0,0,0-8.28,13.77c-.22.94-.49,2,.41,2.61S146.1-133.58,146.85-134.14Z" transform="translate(28.83 241.54)"/><path class="cls-1" d="M331.68-154.64c12.46-.06,24.92,0,37.38,0s25,0,37.56,0c1.47,0,1.9-.37,1.89-1.87-.07-8.72,0-17.44-.06-26.16,0-1.25.35-1.62,1.6-1.59,3.2.08,6.4,0,9.61,0,1.06,0,1.57-.15,1.57-1.42q-.06-27.24,0-54.46c0-1.24-.44-1.49-1.54-1.42a97.15,97.15,0,0,0-10.77,1.18c-25,4.45-45.24,16.71-60.55,36.94a93,93,0,0,0-18.44,46.87C329.76-155,330.19-154.64,331.68-154.64Z" transform="translate(28.83 241.54)"/><path class="cls-1" d="M421.22-106.91c0-1.09-.33-1.41-1.42-1.39-3.2.06-6.4-.06-9.6.06-1.46,0-1.76-.45-1.75-1.81.05-8.6,0-17.2.06-25.8,0-1.49-.42-1.87-1.89-1.86-12.46.05-24.92,0-37.37,0H348.07c-5.58,0-11.15,0-16.73,0-1.18,0-1.57.35-1.39,1.52.32,2.05.46,4.12.84,6.16,4.74,25.4,17.49,45.82,38.38,61A92.63,92.63,0,0,0,419.6-51.34c1,.05,1.63.09,1.63-1.3Q421.16-79.78,421.22-106.91Z" transform="translate(28.83 241.54)"/><path class="cls-1" d="M515.64-125.46c-12.16.06-24.32,0-36.48,0s-24.32,0-36.48,0c-1.69,0-2,.51-2,2.06.1,4.51,0,9,.08,13.52,0,1.39-.41,1.68-1.7,1.64-3.14-.09-6.29,0-9.43,0-1.12,0-1.55.24-1.55,1.47q.06,27,0,54.09c0,1.23.42,1.46,1.55,1.4a92.24,92.24,0,0,0,13.05-1.57,95.34,95.34,0,0,0,74.42-70.69C517.49-125.16,517.18-125.46,515.64-125.46Z" transform="translate(28.83 241.54)"/><path class="cls-1" d="M428.09-185.6c0,1.12.39,1.41,1.45,1.39,3.15-.06,6.29,0,9.44,0,1.35,0,1.82.27,1.79,1.73-.11,4.5,0,9-.08,13.52,0,1.44.42,1.76,1.79,1.75,12.16-.05,24.33,0,36.5,0h36.49c2.06,0,2.1,0,1.55-2.06q-12.34-46.12-56.18-65.1a90.48,90.48,0,0,0-30.87-7c-.87-.06-1.88-.44-1.88,1.21Q428.15-212.92,428.09-185.6Z" transform="translate(28.83 241.54)"/><path class="cls-1" d="M369-142.22h17.08c6.94,0,13.89,0,20.83,0,1.36,0,1.77-.39,1.67-1.7a25.37,25.37,0,0,1,0-4.27c.14-1.61-.36-2.09-2-2.09q-33.54.09-67.09,0c-2.73,0-5.46.06-8.19,0-1.3,0-2,.18-1.85,1.72a25.21,25.21,0,0,1,0,4.43c-.12,1.47.36,1.89,1.86,1.89C343.82-142.24,356.4-142.22,369-142.22Z" transform="translate(28.83 241.54)"/><path class="cls-1" d="M519.82-144a33.43,33.43,0,0,1,0-4.8c.08-1.22-.27-1.59-1.54-1.59q-38,.06-76,0c-1.19,0-1.71.22-1.6,1.53a22.46,22.46,0,0,1,0,4.26c-.18,1.73.3,2.28,2.17,2.27,12.39-.1,24.79-.05,37.18-.05h10.68c9.13,0,18.26,0,27.39,0C519.42-142.33,519.93-142.61,519.82-144Z" transform="translate(28.83 241.54)"/><path class="cls-1" d="M442.54-162.81c-.23,0-.47,0-.71,0-.84-.11-1.15.22-1.12,1.08a43.54,43.54,0,0,1,0,5c-.12,1.48.34,1.87,1.83,1.86,12.52-.06,25,0,37.55,0H486c10.56,0,21.11-.05,31.67,0,1.75,0,2-.55,1.67-2a26.31,26.31,0,0,1-.54-4c-.08-1.48-.65-1.92-2.19-1.91Q479.56-162.76,442.54-162.81Z" transform="translate(28.83 241.54)"/><path class="cls-1" d="M517.79-137.93c-12.57.07-25.15,0-37.72,0h-6.76c-10.32,0-20.64,0-31,0-1.35,0-1.76.34-1.65,1.67a22.46,22.46,0,0,1,0,4.26c-.18,1.66.42,2,2,2q35.85-.09,71.7,0c1,0,1.91-.05,2.85,0s1.27-.36,1.37-1.2c.2-1.65.37-3.3.67-4.93C519.56-137.43,519.33-137.93,517.79-137.93Z" transform="translate(28.83 241.54)"/><path class="cls-1" d="M24.91-100.71H8.22V-62H24.91c11.82,0,17.57-8.35,17.57-19.58C42.48-94.42,34.94-100.71,24.91-100.71Zm-.59,31.55H16.73v-24.4H22.8c8.46,0,11.17,5,11.17,12.8C34-72.2,29.25-69.16,24.32-69.16Z" transform="translate(28.83 241.54)"/><rect class="cls-1" x="76.63" y="140.82" width="7.7" height="6.34"/><rect class="cls-1" x="76.63" y="151.51" width="7.7" height="28.03"/><path class="cls-1" d="M81.19-86.29h-.11c-1.84-3.26-4.66-4.5-8.35-4.5-7.86,0-12,6.61-12,13.88,0,7.7,3.58,14.09,12,14.09,3.36,0,6.72-1.41,8.4-4.33h.11v3.68c0,4-1.9,6.94-6.18,6.94-2.71,0-5.05-1-5.75-3.85H61.62c.38,6.4,6.83,9,12.36,9,12.9,0,14.53-7.8,14.53-12.41V-90H81.19ZM74.63-68.62c-4.72,0-6.24-4.39-6.24-8.4,0-4.18,1.9-8,6.24-8,5,0,6.56,4.06,6.56,8.62C81.19-72.36,79-68.62,74.63-68.62Z" transform="translate(28.83 241.54)"/><rect class="cls-1" x="123.74" y="151.51" width="7.7" height="28.03"/><rect class="cls-1" x="123.74" y="140.82" width="7.7" height="6.34"/><path class="cls-1" d="M118.43-98.44h-7.7V-90h-4.66v5.15h4.66v16.53c0,5.59,4.12,6.67,8.84,6.67a29.11,29.11,0,0,0,4.5-.27v-6a12,12,0,0,1-2.39.22c-2.6,0-3.25-.65-3.25-3.25V-84.88h5.64V-90h-5.64Z" transform="translate(28.83 241.54)"/><path class="cls-1" d="M152.91-82.82c0-6.73-6.72-8-12.31-8-6.29,0-12.74,2.17-13.17,9.38h7.7c.27-3,2.17-4.23,5.09-4.23,2.71,0,5,.49,5,3.79,0,3.15-4.39,3-9.11,3.69s-9.54,2.17-9.54,8.51c0,5.75,4.23,8.4,9.54,8.4,3.42,0,7-.92,9.44-3.46a11.33,11.33,0,0,0,.54,2.71h7.81c-.71-1.14-1-3.69-1-6.24Zm-7.7,10c0,1.68-.22,6.45-6.23,6.45-2.5,0-4.72-.7-4.72-3.57s2.17-3.64,4.55-4.12,5.1-.49,6.4-1.63Z" transform="translate(28.83 241.54)"/><rect class="cls-1" x="187.92" y="140.82" width="7.7" height="38.71"/><polygon class="cls-1" points="231.29 175.95 231.15 175.95 219.08 140.82 211.29 140.82 211.29 180.38 215.78 180.38 215.78 144.15 215.92 144.15 228.9 180.38 233.11 180.38 246.09 144.15 246.23 144.15 246.23 180.38 250.72 180.38 250.72 140.82 243.35 140.82 231.29 175.95"/><rect class="cls-1" x="256.53" y="150.96" width="4.04" height="29.42"/><rect class="cls-1" x="256.53" y="140.82" width="4.04" height="5.65"/><path class="cls-1" d="M249.85-91.24c-3.89,0-7.63,1.5-9.79,4.77h-.15v-4.1H236v29.41h4.32V-80.93c0-4.55,3.38-7.54,8.42-7.54,4.39,0,6.55,2,6.55,6v21.27h4.32V-83.37C259.64-88.91,255.68-91.24,249.85-91.24Z" transform="translate(28.83 241.54)"/><path class="cls-1" d="M289.31-75.73v-1.22c0-9.8-3.87-14.29-12.48-14.29s-13.35,5.15-13.35,15.35c0,11.08,4.82,15.4,13,15.4,7.29,0,11.81-4.16,12.47-10.42h-4.38c-.72,5.16-3.57,7.65-8.16,7.65-4.31,0-8.25-2.6-8.25-11.08v-1.39ZM276.4-88.47c5.39,0,8.09,2.66,8.24,10H268.15C268.3-85.81,271-88.47,276.4-88.47Z" transform="translate(28.83 241.54)"/></svg>