<?xml version="1.0" encoding="UTF-8"?>
<svg id="Layer_1" xmlns="http://www.w3.org/2000/svg" viewBox="0 0 322.87 322.62">
  <defs>
    <style>
      .cls-1 {
        fill: #fff;
      }
    </style>
  </defs>
  <path class="cls-1" d="M.64,147.18l133.41-.04-.02-50.11h21.52s-.03-97.02-.03-97.02C73.83,2.94,7.65,66.57.64,147.18M134.05,154.97l-133.9.04C.09,157.12,0,159.22,0,161.34c0,2.34.09,4.66.18,6.96l133.88-.04v-13.29ZM188.82,125.77l130.08-.04C303.11,55.53,241.59,2.64,167.28,0l.03,97.01h21.5s0,28.75,0,28.75ZM188.82,146.9l133.39-.04c-.4-4.48-.99-8.91-1.75-13.29l-131.64.04v13.29ZM134.06,176.1l-133.36.04c7.34,80.31,73.44,143.57,154.93,146.49l-.03-96.45h-21.52s-.02-50.07-.02-50.07ZM188.85,226.16h-21.5s.03,96.44.03,96.44c74.25-2.7,135.68-55.53,151.5-125.63l-130.04.04v29.15ZM322.73,154.69l-133.9.04v13.31s133.89-.04,133.89-.04c.08-2.26.16-4.49.16-6.76,0-2.21-.08-4.38-.15-6.56M188.83,189.17l131.62-.04c.76-4.38,1.36-8.8,1.74-13.31l-133.36.04v13.31Z"/>
</svg>