<?xml version="1.0" encoding="UTF-8" standalone="no"?>
<!-- Created with Inkscape (http://www.inkscape.org/) -->

<svg
   xmlns:dc="http://purl.org/dc/elements/1.1/"
   xmlns:cc="http://creativecommons.org/ns#"
   xmlns:rdf="http://www.w3.org/1999/02/22-rdf-syntax-ns#"
   xmlns:svg="http://www.w3.org/2000/svg"
   xmlns="http://www.w3.org/2000/svg"
   xmlns:sodipodi="http://sodipodi.sourceforge.net/DTD/sodipodi-0.dtd"
   xmlns:inkscape="http://www.inkscape.org/namespaces/inkscape"
   version="1.1"
   id="svg10"
   width="350"
   height="350"
   viewBox="0 0 350 350"
   sodipodi:docname="favicon.svg"
   inkscape:version="0.92.4 (5da689c313, 2019-01-14)">
  <metadata
     id="metadata16">
    <rdf:RDF>
      <cc:Work
         rdf:about="">
        <dc:format>image/svg+xml</dc:format>
        <dc:type
           rdf:resource="http://purl.org/dc/dcmitype/StillImage" />
        <dc:title></dc:title>
      </cc:Work>
    </rdf:RDF>
  </metadata>
  <defs
     id="defs14" />
  <sodipodi:namedview
     pagecolor="#ffffff"
     bordercolor="#666666"
     borderopacity="1"
     objecttolerance="10"
     gridtolerance="10"
     guidetolerance="10"
     inkscape:pageopacity="0"
     inkscape:pageshadow="2"
     inkscape:window-width="1920"
     inkscape:window-height="1017"
     id="namedview12"
     showgrid="false"
     inkscape:zoom="1.2142857"
     inkscape:cx="15.647059"
     inkscape:cy="251.58824"
     inkscape:window-x="-8"
     inkscape:window-y="-8"
     inkscape:window-maximized="1"
     inkscape:current-layer="svg10" />
  <path
     style="fill:#4f6b83"
     d="M 151.38389,348.45463 C 124.05733,344.46636 94.33464,332.56321 73.97008,317.45244 61.42019,308.14025 40.66967,287.44214 32.85758,276.44377 16.39939,253.27284 4.23033,222.60677 1.43153,197.25 L 0.74167,191 H 73.37084 146 v 27 27 h 11.5 11.5 v 50.91821 c 0,28.00502 -0.27314,51.63002 -0.60699,52.5 -0.73008,1.90257 -4.17221,1.90994 -17.00912,0.0364 z M 181,297.5 V 245 h 12 12 v -16 -16 h 70.51905 70.51905 l -0.66952,2.75 c -2.18544,8.97645 -8.3032,25.36017 -13.34921,35.75 -9.60941,19.78595 -23.56112,38.70555 -37.85331,51.33201 -31.57767,27.89734 -59.44148,40.68869 -100.48842,46.13087 -4.3023,0.57041 -8.9148,1.03712 -10.25,1.03712 H 181 Z M 205,198 v -7 h 72.12917 72.12916 l -0.70317,6.21524 c -0.38675,3.41838 -0.92143,6.56838 -1.18818,7 C 347.10022,204.64686 314.95852,205 275.94098,205 H 205 Z M 0,175 v -7 h 73 73 v 7 7 H 73 0 Z m 205,0 v -7 h 72.5 72.5 v 7 7 H 277.5 205 Z M 1.43153,152.75 C 4.24218,127.28586 16.25977,96.988704 32.85758,73.522761 40.13105,63.23955 61.98439,41.276587 73.40171,32.775246 88.51788,21.51974 111.63511,10.686529 131.61487,5.495348 140.46958,3.1947 160.7797,-2e-6 166.55122,-2e-6 H 169 v 52.5 V 105 H 157.5 146 v 27 27 H 73.37084 0.74167 Z M 205,152 v -7 h 70.94098 c 39.01754,0 71.15924,0.35314 71.426,0.78476 0.26675,0.43162 0.80143,3.58162 1.18818,7 L 349.25833,159 H 277.12917 205 Z m 0,-31 V 105 H 193 181 V 52.499998 -2e-6 l 2.75,0.0046 c 5.99103,0.01003 30.27986,4.121399 39.25,6.643841 38.75664,10.898533 74.31538,36.891178 97.34389,71.1562 9.82856,14.624295 21.23823,40.339611 25.04434,56.445351 l 0.64987,2.75 H 275.51905 205 Z"
     id="path20"
     inkscape:connector-curvature="0" />
</svg>
